<svg width="30" height="30" viewBox="0 0 30 30" fill="none" xmlns="http://www.w3.org/2000/svg">
    <mask id="i0sub5c9za" style="mask-type:alpha" maskUnits="userSpaceOnUse" x="0" y="0" width="30" height="30">
        <path fill="#D9D9D9" d="M0 0h30v30H0z"/>
    </mask>
    <g mask="url(#i0sub5c9za)">
        <path d="m14.992 11.02-9.303 9.496c-.316.323-.685.479-1.107.468-.422-.01-.791-.178-1.107-.5A1.565 1.565 0 0 1 3 19.352c0-.43.158-.808.475-1.13l9.713-9.948c.253-.258.538-.452.855-.581.316-.13.632-.194.949-.194.316 0 .633.065.95.194.316.129.6.323.853.581l9.746 9.947c.316.323.469.706.459 1.147-.011.441-.174.824-.49 1.147-.317.323-.687.484-1.108.484-.422 0-.791-.162-1.108-.484l-9.302-9.496z" fill="#000"/>
    </g>
</svg>
