<svg width="17" height="17" viewBox="0 0 17 17" fill="none" xmlns="http://www.w3.org/2000/svg">
    <mask id="sujocw7zsa" style="mask-type:alpha" maskUnits="userSpaceOnUse" x="0" y="0" width="17" height="17">
        <path fill="#D9D9D9" d="M.563.563h15.882v15.882H.563z"/>
    </mask>
    <g mask="url(#sujocw7zsa)">
        <path d="M12.295 5.951 4.426 13.82a.838.838 0 0 1-.619.243.838.838 0 0 1-.619-.243.838.838 0 0 1-.243-.619c0-.25.081-.457.243-.619l7.869-7.868h-6.72a.855.855 0 0 1-.63-.255.855.855 0 0 1-.253-.63c0-.25.084-.46.254-.63.17-.169.38-.254.63-.254h8.84c.251 0 .461.085.63.254.17.17.255.38.255.63v8.842c0 .25-.085.46-.254.63a.855.855 0 0 1-.63.254.856.856 0 0 1-.63-.255.856.856 0 0 1-.254-.63V5.952z" fill="#000"/>
    </g>
</svg>
