<svg xmlns="http://www.w3.org/2000/svg" width="40" height="40" viewBox="0 0 40 40" fill="none"><mask id="mask0" style="mask-type:alpha" maskUnits="userSpaceOnUse" x="0" y="0" width="40" height="40"><rect width="40" height="40" fill="#D9D9D9"/></mask><g mask="url(#mask0)"><path d="M1.81055 21.9358L2.43555 19.4358H10.753L10.128 21.9358H1.81055ZM12.083 32.5C10.8117 32.5 9.72999 32.0539 8.83805 31.1617C7.94583 30.2697 7.49971 29.1881 7.49971 27.9167H3.55763L4.39096 24.4358H12.0864L13.5543 18.4808H17.0864L18.9614 10.9808H8.18888L8.56721 9.56417C8.70166 8.95722 9.00069 8.46153 9.4643 8.07708C9.92819 7.69236 10.4774 7.5 11.1118 7.5H29.8393L28.3939 13.75H32.5639L37.3235 20.0963L35.7689 27.9167H33.1405C33.1405 29.1881 32.6946 30.2697 31.8026 31.1617C30.9104 32.0539 29.8287 32.5 28.5576 32.5C27.2862 32.5 26.2044 32.0539 25.3122 31.1617C24.4203 30.2697 23.9743 29.1881 23.9743 27.9167H16.6664C16.6664 29.1881 16.2203 30.2697 15.328 31.1617C14.4361 32.0539 13.3544 32.5 12.083 32.5ZM5.14388 15.9808L5.76888 13.4808H15.753L15.128 15.9808H5.14388ZM12.083 30C12.6622 30 13.1542 29.7975 13.5589 29.3925C13.9639 28.9878 14.1664 28.4958 14.1664 27.9167C14.1664 27.3375 13.9639 26.8456 13.5589 26.4408C13.1542 26.0358 12.6622 25.8333 12.083 25.8333C11.5039 25.8333 11.0119 26.0358 10.6072 26.4408C10.2022 26.8456 9.99971 27.3375 9.99971 27.9167C9.99971 28.4958 10.2022 28.9878 10.6072 29.3925C11.0119 29.7975 11.5039 30 12.083 30ZM28.5576 30C29.1365 30 29.6285 29.7975 30.0335 29.3925C30.4385 28.9878 30.641 28.4958 30.641 27.9167C30.641 27.3375 30.4385 26.8456 30.0335 26.4408C29.6285 26.0358 29.1365 25.8333 28.5576 25.8333C27.9785 25.8333 27.4864 26.0358 27.0814 26.4408C26.6764 26.8456 26.4739 27.3375 26.4739 27.9167C26.4739 28.4958 26.6764 28.9878 27.0814 29.3925C27.4864 29.7975 27.9785 30 28.5576 30ZM26.5093 21.875H34.4068L34.6376 20.6954L31.3139 16.25H27.8201L26.5093 21.875Z" fill="white"/></g></svg>